<svg width="49" height="66" viewBox="0 0 49 66" fill="none" xmlns="http://www.w3.org/2000/svg">
<path d="M24.6727 0.335625C24.3005 0.484465 23.8219 0.707726 23.5915 0.87517C22.723 1.47053 0.708986 24.9873 0.354493 25.6757C0.0886232 26.2338 0 26.7548 0 27.8897C0 29.7688 0.460841 30.7734 1.2939 30.7734C1.3648 30.7734 7.65704 24.2431 15.2786 16.2801L29.1393 1.76821L28.6253 1.39611C27.8277 0.800751 26.2679 0.0751553 25.7716 0.0937595C25.5235 0.0937595 25.0272 0.205389 24.6727 0.335625Z" fill="black"/>
<path d="M29.7947 5.65616C29.3339 5.74919 28.6781 5.97245 28.3413 6.1585C28.0045 6.34455 21.7477 12.8377 14.4275 20.5774C0.726316 35.0707 0.637693 35.1823 0.336374 36.9498C0.159128 37.9173 0.566794 41.5639 0.903563 42.122C1.20488 42.6057 4.35987 45.8244 4.80298 46.1035C4.96251 46.1965 5.2461 46.1779 5.51197 46.0477C5.91964 45.843 5.95509 45.7686 5.81329 45.136C5.74239 44.7639 5.67149 43.9453 5.67149 43.3313C5.67149 42.3639 5.76011 42.0662 6.3273 41.0987C6.80587 40.2987 11.237 35.5544 21.6237 24.6705C29.6707 16.261 36.2288 9.28414 36.1933 9.19112C36.0515 8.78181 32.9674 6.02826 32.4534 5.87943C31.514 5.56314 30.6987 5.50732 29.7947 5.65616Z" fill="black"/>
<path d="M37.4695 11.9818C37.0264 12.4469 37.0264 13.1167 37.4695 15.5353C37.6822 16.6144 37.7886 17.7121 37.7177 18.1028C37.505 19.4424 36.9201 21.0424 36.3883 21.7122C35.3603 23.0145 24.1229 33.3775 18.7523 37.973C13.6299 42.3638 13.4881 42.5126 12.7791 43.9266C11.9283 45.6382 11.7334 46.5313 11.7511 48.615C11.7688 50.9965 12.2651 53.1547 12.9386 53.8431C14.4275 55.3315 20.9324 61.7688 22.1909 63.0153C24.0697 64.8758 24.885 65.2665 26.498 65.1549C27.3488 65.0805 27.916 64.913 28.4654 64.5782C28.8908 64.3177 32.099 61.1548 35.6084 57.5269C39.1179 53.9175 43.3718 49.5267 45.038 47.815C48.8665 43.8708 49.345 43.0149 48.8133 40.9684C48.6538 40.4102 47.803 39.4428 44.5594 36.1311C42.3084 33.8613 40.3587 31.9263 40.2169 31.8333C39.8092 31.5915 39.2597 31.8519 38.9939 32.4101C38.6216 33.2101 38.533 35.6846 38.8343 37.4706C39.1711 39.4986 39.047 41.2661 38.4621 42.587C38.019 43.6103 36.8492 44.9871 31.9217 50.2523C29.3694 52.9686 28.3945 53.7128 27.0474 53.9361C25.7004 54.1593 24.6901 53.7686 23.1657 52.3733C20.7375 50.1779 20.2589 49.1732 20.8793 47.629C21.1274 46.9964 22.0314 46.1406 32.6839 36.5404C44.2581 26.0844 45.1443 25.2657 45.6406 24.2053C46.1192 23.2192 46.2432 21.9355 45.9774 20.4098L45.7647 19.1447L43.7618 17.0795C41.0676 14.3074 38.2317 11.6097 38.0013 11.6097C37.9126 11.6097 37.6645 11.7771 37.4695 11.9818Z" fill="black"/>
</svg>
